<?xml version="1.0" encoding="utf-8"?>
<!-- Generator: Adobe Illustrator 17.0.0, SVG Export Plug-In . SVG Version: 6.00 Build 0)  -->
<!DOCTYPE svg PUBLIC "-//W3C//DTD SVG 1.1//EN" "http://www.w3.org/Graphics/SVG/1.1/DTD/svg11.dtd">
<svg version="1.1" id="Capa_1" xmlns="http://www.w3.org/2000/svg" xmlns:xlink="http://www.w3.org/1999/xlink" x="0px" y="0px"
	 width="425.2px" height="425.2px" viewBox="0 0 425.2 425.2" enable-background="new 0 0 425.2 425.2" xml:space="preserve">
<g>
	<g>
		<g>
			<defs>
				<path id="SVGID_1_" d="M145.706,154.995v55.59c0,1.741,0.547,3.228,1.644,4.465c1.095,1.239,2.393,1.856,3.894,1.856h1.125
					v1.004h-26.306v-1.004h1.125c1.499,0,2.653-0.434,3.461-1.304c1.326-1.538,2.018-3.177,2.076-4.917v-25.587H104.69
					l-0.017,25.769c0,0-0.03,0.51-0.038,0.595c-0.122,1.329-0.374,2.25-0.778,3.556c-1.635,5.276-4.5,9.934-9.57,13.739
					c-4.422,3.319-9.797,5.208-15.529,6.563c-0.829,0.196-1.7,0.291-2.508,0.529c-0.884,0.26-1.336-0.007-1.722-0.604
					c-0.29-0.448-0.251-0.751,0.34-0.977c0.194-0.074,0.367-0.182,0.555-0.268c6.493-2.983,10.648-7.461,13.169-12.991
					c1.484-3.256,2.612-5.551,3.046-8.964c0.02-0.16,0.073-1.459,0.073-1.459v-55.69c-0.058-1.739-0.62-3.211-1.687-4.415
					c-1.069-1.205-2.351-1.806-3.851-1.806h-1.125v-1.004h26.305l-0.086,1.004h-1.039c-1.501,0-2.798,0.602-3.894,1.806
					c-1.096,1.204-1.644,2.676-1.644,4.415v25.888h28.036v-25.888l0.039-1.096c0.126-4.292,0.555-8.564,1.837-12.766
					c1.61-5.276,4.289-10.087,9.281-13.893c4.354-3.319,9.646-5.208,15.29-6.563c0.816-0.196,1.674-0.291,2.469-0.529
					c0.871-0.26,1.315,0.007,1.696,0.604c0.285,0.448,0.247,0.751-0.335,0.977c-0.191,0.074-0.362,0.182-0.546,0.268
					c-6.393,2.983-10.484,7.461-12.966,12.991c-2.15,4.791-2.974,9.775-3.498,14.822c-0.129,1.238-0.182,2.477-0.209,3.716
					L145.706,154.995z"/>
			</defs>
			<use xlink:href="#SVGID_1_"  overflow="visible" fill="#FFFFFF"/>
			<clipPath id="SVGID_2_">
				<use xlink:href="#SVGID_1_"  overflow="visible"/>
			</clipPath>
			<g id="XMLID_17_" clip-path="url(#SVGID_2_)">
				<polygon id="XMLID_24_" fill="#FFFFFF" points="-34.892,384.691 -11.711,357 44.595,357 95.524,362.942 157.072,368.999 
					240.302,357 268.168,357 321.019,357.302 358.174,344.041 398.813,336.943 456.507,376.969 443.172,391.315 421.595,403 
					24.416,403 -43.809,403 				"/>
				<path id="XMLID_23_" fill="#FFFFFF" d="M-34.98,298.343l-19.153,43.563L-28.755,384h17.044c0,0-10.039-6.226,16.565-17.142
					c26.604-10.916,26.604-10.865,26.604-10.865l23.067-0.275l81.686,13.731l110.768-4.987l27.596-4.989l46.444-2.494l29.355-15.75
					l-16.542-24.016l-34.593-1.986l-128.216-5.655L44.688,289.61L-34.98,298.343z"/>
				<polygon id="XMLID_22_" fill="#FFFFFF" points="-43.843,274.792 -11.757,324.151 16.106,346.577 31.031,347.149 66.776,335 
					102.25,335 123.065,339.759 164.19,346.911 248.397,335.486 306.004,352.242 322.395,329.733 356.992,335.331 417.15,352.165 
					438.814,391.073 487,408.301 487,329.845 442.714,274.792 110.016,259.511 12.036,258.575 				"/>
				<path id="XMLID_21_" fill="#FFFFFF" d="M-28.755,264.478L4.854,286h115.974l43.362,26h27.426l25.515-24h12.601l23.509,34.219
					c0,0,61.031-28.177,74.655-18.196c13.623,9.981,65.941,22.424,98.719,6.205c32.777-16.219,49.433-17.117,49.433-17.117
					l-9.612-67.067l-4.88-27.654l-39.96-1.412L95.524,184.501l-71.108,14.074L-28.755,264.478z"/>
				<polygon id="XMLID_20_" fill="#FFFFFF" points="24,134 24,209.14 42.583,226.081 106.964,213 125.745,213 285.723,245.379 
					322.306,253.138 334.299,228.65 384.439,203.513 352.502,185.551 194.556,160.609 32.835,134 				"/>
				<path id="XMLID_19_" fill="#FFFFFF" d="M32.886,96.379c0,0-8.976,52.44,90.179,92.72
					c123.412,50.135,240.234,5.003,240.234,5.003l88.99,16.93l61.159-83.477l-32.276-17.601l-32.351,6.746l-99.615,43.737
					l-227.576-26.777L32.886,96.379z"/>
				<path id="XMLID_18_" fill="#FFFFFF" d="M95.524,149.388c0,0,40.196-14.622,54.551-12.367s182.716,71.688,219.84,60.051
					c37.124-11.636,67.369-44.166,106.08-36.634c38.711,7.532,7.129-50.483,7.129-50.483l-162.218-8.394L141.112,77.953
					l-36.975,5.923L95.524,149.388z"/>
			</g>
		</g>
		<g>
			<defs>
				<path id="SVGID_3_" d="M265.275,214.977c1.698,0,3.152-0.74,4.362-2.222c1.209-1.481,1.846-3.262,1.912-5.345V140.88
					c-0.066-2.08-0.703-3.861-1.912-5.343c-1.21-1.481-2.663-2.222-4.362-2.222h-1.274v-1.202h29.798l-0.098,1.202h-1.177
					c-1.7,0-3.17,0.741-4.411,2.222c-1.242,1.482-1.862,3.263-1.862,5.343v70.134h12.841c4.769,0,8.772-1.681,12.007-5.043
					c3.235-3.363,5.636-8.125,7.204-14.292h0.98l-4.509,24.499h-50.774v-1.2H265.275z"/>
			</defs>
			<use xlink:href="#SVGID_3_"  overflow="visible" fill="#FFFFFF"/>
			<clipPath id="SVGID_4_">
				<use xlink:href="#SVGID_3_"  overflow="visible"/>
			</clipPath>
			<g id="XMLID_9_" clip-path="url(#SVGID_4_)">
				<polygon id="XMLID_16_" fill="#FFFFFF" points="-85.506,323.191 -62.325,296 -6.019,296 44.909,301.677 106.457,307.866 
					189.687,296 217.554,296 270.404,296.036 307.56,282.643 348.199,275.478 405.892,315.471 392.558,329.566 370.98,341 
					-26.198,341 -94.423,341 				"/>
				<path id="XMLID_15_" fill="#FFFFFF" d="M-85.594,236.812l-19.153,43.828L-79.37,323h17.044c0,0-10.039-6.492,16.565-17.408
					s26.604-10.998,26.604-10.998l23.067-0.341l81.686,13.697l110.768-5.003l27.596-4.997l46.444-2.498l29.355-15.752
					l-16.542-24.017l-34.593-1.987l-128.216-5.655L-5.927,228.079L-85.594,236.812z"/>
				<polygon id="XMLID_14_" fill="#FFFFFF" points="-94.457,213.26 -62.372,262.62 -34.509,285.046 -19.583,285.383 16.162,273 
					51.636,273 72.451,277.993 113.575,285.262 197.783,273.896 255.39,290.681 271.781,268.187 306.377,273.793 366.536,290.63 
					388.006,329.54 436,346.77 436,268.313 391.906,213.26 59.305,197.979 -38.626,197.044 				"/>
				<path id="XMLID_13_" fill="#FFFFFF" d="M-79.37,202.713L-45.761,224H70.214l43.362,26h27.426l25.515-24h12.601l23.509,34.453
					c0,0,61.031-28.06,74.655-18.079c13.623,9.981,65.941,22.483,98.719,6.264c32.777-16.219,49.433-17.088,49.433-17.088
					l-9.612-67.052l-4.88-27.646l-39.96-1.408L44.909,122.968l-71.108,13.958L-79.37,202.713z"/>
				<polygon id="XMLID_12_" fill="#FFFFFF" points="-26,73 -26,147.609 -7.724,164.815 56.349,152 75.131,152 235.109,184.113 
					271.692,191.74 283.685,167.186 333.825,142.015 301.887,124.036 143.942,99.352 -17.779,73 				"/>
				<path id="XMLID_11_" fill="#FFFFFF" d="M-29.613,53.673c0,0-22.859,27.655,102.065,73.896s240.234,5.003,240.234,5.003
					l88.99,16.93l61.159-83.477l-32.276-17.601l-32.351,6.746l-99.615,43.737L71.015,72.13L-29.613,53.673z"/>
				<path id="XMLID_10_" fill="#FFFFFF" d="M44.909,87.857c0,0,40.196-14.622,54.551-12.367s182.716,71.688,219.84,60.051
					s67.369-44.166,106.08-36.634c38.711,7.532,7.129-50.483,7.129-50.483L270.292,40.03L90.498,16.422l-36.975,5.923L44.909,87.857
					z"/>
			</g>
		</g>
		<g>
			<defs>
				<path id="SVGID_5_" d="M385.066,133.315h-1.372c-1.961,0-3.823,0.68-5.587,2.041c-1.764,1.362-3.17,3.002-4.215,4.924
					l-19.31,37.709v29.422c0,2.083,0.62,3.864,1.863,5.345c1.241,1.482,2.711,2.222,4.411,2.222h1.177l0.098,1.2h-29.798v-1.2h1.274
					c1.698,0,3.152-0.721,4.361-2.162c1.209-1.44,1.846-3.201,1.912-5.284v-29.662l-18.722-37.709
					c-0.98-1.922-2.37-3.543-4.166-4.865c-1.798-1.32-3.644-1.981-5.538-1.981h-1.372v-1.202h32.444v1.202h-1.274
					c-1.437,0-2.548,0.8-3.332,2.401c-0.393,0.882-0.588,1.742-0.588,2.583c0,0.841,0.162,1.662,0.49,2.462l14.016,31.224
					l14.508-31.224c0.392-0.799,0.587-1.621,0.587-2.462c0-0.841-0.23-1.661-0.686-2.462c-0.784-1.681-1.896-2.522-3.332-2.522
					h-1.177v-1.202h23.329V133.315z"/>
			</defs>
			<use xlink:href="#SVGID_5_"  overflow="visible" fill="#FFFFFF"/>
			<clipPath id="SVGID_6_">
				<use xlink:href="#SVGID_5_"  overflow="visible"/>
			</clipPath>
			<g id="XMLID_1_" clip-path="url(#SVGID_6_)">
				<polygon id="XMLID_8_" fill="#FFFFFF" points="-120.242,341.191 -97.061,314 -40.754,314 10.174,319.608 71.722,325.832 
					154.952,314 182.819,314 235.669,313.968 272.824,300.541 313.464,293.359 371.157,333.343 357.823,347.502 336.245,359 
					-60.934,359 -129.159,359 				"/>
				<path id="XMLID_7_" fill="#FFFFFF" d="M-120.33,254.676l-19.153,43.396L-114.105,340h17.044c0,0-10.039-6.06,16.565-16.976
					s26.604-10.782,26.604-10.782l23.067-0.233l81.686,13.751l110.768-4.976l27.596-4.983l46.444-2.492l29.355-15.749
					l-16.542-24.015l-34.593-1.986l-128.216-5.655l-126.335-19.961L-120.33,254.676z"/>
				<polygon id="XMLID_6_" fill="#FFFFFF" points="-129.193,231.124 -97.107,280.484 -69.244,302.91 -54.319,303.315 -18.573,291 
					16.901,291 37.716,295.925 78.84,303.16 163.048,291.777 220.654,308.554 237.046,286.055 271.642,291.659 331.801,308.495 
					353.139,347.404 401,364.633 401,286.177 357.039,231.124 24.503,215.843 -73.395,214.908 				"/>
				<path id="XMLID_5_" fill="#FFFFFF" d="M-114.105,220.644L-80.496,242H35.478l43.362,26h27.426l25.515-24h12.601l23.509,34.385
					c0,0,61.031-28.094,74.655-18.113c13.623,9.981,65.941,22.466,98.719,6.247s49.433-17.097,49.433-17.097l-9.612-67.056
					l-4.88-27.648l-39.96-1.409L10.174,140.833l-71.108,13.992L-114.105,220.644z"/>
				<polygon id="XMLID_4_" fill="#FFFFFF" points="-61,90 -61,165.473 -42.592,182.747 21.614,170 40.395,170 200.373,202.045 
					236.956,209.637 248.95,185.067 299.09,159.888 267.152,141.904 109.206,116.786 -52.514,90 				"/>
				<path id="XMLID_3_" fill="#FFFFFF" d="M-64.349,71.537c0,0-22.859,27.655,102.065,73.896s240.234,5.003,240.234,5.003
					l88.99,16.93l61.159-83.477l-32.276-17.601l-32.351,6.746l-99.615,43.737L36.28,89.994L-64.349,71.537z"/>
				<path id="XMLID_2_" fill="#FFFFFF" d="M10.174,105.721c0,0,40.196-14.622,54.551-12.367s182.716,71.688,219.84,60.051
					c37.124-11.636,67.369-44.166,106.08-36.634c38.711,7.532,7.129-50.483,7.129-50.483l-162.218-8.394L55.762,34.286
					l-36.975,5.923L10.174,105.721z"/>
			</g>
		</g>
		<g>
			<path fill="#FFFFFF" d="M77.744,220.078c-2.119,2.008-5.053,3.012-8.803,3.012s-6.684-1.004-8.804-3.012
				c-2.119-2.008-3.179-4.876-3.179-8.604c0-3.727,1.06-6.595,3.179-8.603c2.119-2.008,5.054-3.012,8.804-3.012
				s6.684,1.004,8.803,3.012c2.12,2.008,3.179,4.876,3.179,8.603C80.923,215.202,79.864,218.07,77.744,220.078z M76.396,206.748
				c-1.864-1.065-4.349-1.598-7.455-1.598c-3.107,0-5.592,0.533-7.456,1.598c-1.864,1.065-2.796,2.64-2.796,4.726
				c0,2.109,0.932,3.69,2.796,4.743c1.864,1.054,4.349,1.581,7.456,1.581c3.129,0,5.619-0.526,7.472-1.581
				c1.853-1.053,2.779-2.634,2.779-4.743C79.192,209.388,78.26,207.813,76.396,206.748z"/>
			<path fill="#FFFFFF" d="M73.267,195.198H58.623c-0.2,0.977-0.443,1.864-0.732,2.662h-0.599v-10.55h0.666
				c0.156,0.444,0.333,1.098,0.533,1.964l0.166,0.699h15.078c1.953,0,3.351-0.571,4.194-1.714c0.844-1.143,1.265-2.613,1.265-4.411
				c0-1.797-0.433-3.278-1.298-4.443c-0.865-1.165-2.252-1.747-4.161-1.747H58.59c-0.2,0.998-0.433,1.897-0.699,2.695h-0.599v-7.455
				h0.599c0.422,1.177,0.677,2.075,0.766,2.695h14.611c2.508,0,4.41,0.805,5.708,2.413c1.298,1.609,1.947,3.989,1.947,7.14
				C80.923,191.848,78.372,195.198,73.267,195.198z"/>
			<path fill="#FFFFFF" d="M79.991,148.635h0.599v6.756l-9.952,5.059v2.663h8.654c0.089-0.488,0.322-1.376,0.699-2.663h0.599v10.584
				h-0.666c-0.155-0.51-0.294-1.021-0.416-1.531c-0.122-0.51-0.205-0.898-0.25-1.165H58.623c-0.133,0.71-0.366,1.587-0.699,2.629
				h-0.632V158.32c0-2.773,0.571-4.726,1.714-5.858c1.143-1.132,2.746-1.697,4.81-1.697c1.731,0,3.168,0.46,4.31,1.381
				c1.143,0.921,1.903,2.214,2.28,3.878l8.886-4.827C79.536,150.044,79.77,149.189,79.991,148.635z M69.007,163.113v-3.03
				c0-2.773-1.753-4.16-5.259-4.16c-1.598,0-2.796,0.338-3.595,1.015c-0.799,0.677-1.198,1.726-1.198,3.145v3.03H69.007z"/>
		</g>
		<g>
			<linearGradient id="SVGID_7_" gradientUnits="userSpaceOnUse" x1="158.0853" y1="168.1404" x2="260.0957" y2="168.1404">
				<stop  offset="0.1312" style="stop-color:#BF3472"/>
				<stop  offset="0.2783" style="stop-color:#C54F6E"/>
				<stop  offset="0.5988" style="stop-color:#D07655"/>
				<stop  offset="0.8023" style="stop-color:#D78934"/>
			</linearGradient>
			<circle fill="url(#SVGID_7_)" cx="209.09" cy="168.14" r="51.005"/>
			<linearGradient id="SVGID_8_" gradientUnits="userSpaceOnUse" x1="143.339" y1="81.4218" x2="274.842" y2="81.4218">
				<stop  offset="0.1312" style="stop-color:#BF3472"/>
				<stop  offset="0.2783" style="stop-color:#C54F6E"/>
				<stop  offset="0.5988" style="stop-color:#D07655"/>
				<stop  offset="0.8023" style="stop-color:#D78934"/>
			</linearGradient>
			<path fill="url(#SVGID_8_)" d="M243.907,122.016l30.64-51.821c0,0,1.451-2.039-2.08-1.512c0,0-30.843-1.262-35.3,15.898
				c-0.749,2.883-0.196,5.42-5.435,10.605c0,0-9.478,11.113-20.579,0.543l8.616-9.091l-10.294-11.11l16.558-17.419l-16.664-17.17
				c-0.244-0.252-0.557,0-0.557,0l-16.664,17.17l16.558,17.419l-10.294,11.11l8.616,9.091c-11.101,10.57-20.579-0.543-20.579-0.543
				c-5.239-5.185-4.686-7.721-5.435-10.605c-4.457-17.16-35.3-15.898-35.3-15.898c-3.531-0.526-2.08,1.512-2.08,1.512l30.639,51.821
				C174.274,122.016,204.486,100.528,243.907,122.016z"/>
			<g>
				<path fill="#FFFFFF" d="M242.338,130.315c-0.333-0.25-0.706-0.203-1.037,0.079c-0.116,0.098-0.23,0.199-0.347,0.296
					c-0.071,0.059-0.159,0.128-0.247,0.091c-0.398-0.168-0.85-0.11-1.238-0.282c-0.734-0.325-1.521-0.417-2.293-0.579
					c-0.369-0.077-0.727-0.19-1.084-0.327c-0.377-0.145-0.726-0.374-1.147-0.411c-0.591-0.051-1.182-0.099-1.62-0.062
					c-0.491,0.016-0.826,0.025-1.161,0.038c-0.136,0.005-0.298-0.013-0.391,0.092c-0.332,0.374-0.8,0.321-1.221,0.416
					c-0.117,0.026-0.243,0.005-0.345,0.091c-0.6,0.508-1.233,0.979-1.717,1.61c-0.055,0.072-0.126,0.132-0.193,0.193
					c-0.372,0.338-0.744,0.674-1.019,1.101c-0.108,0.167-0.252,0.304-0.412,0.423c-0.331,0.245-0.665,0.486-1.056,0.627
					c-0.336,0.121-0.553,0.424-0.88,0.557c-0.735,0.298-0.709,0.275-0.634,1.18c0.017,0.207,0.116,0.408,0.178,0.612
					c0.04,0.131,0.089,0.259,0.119,0.392c0.086,0.385,0.338,0.609,0.719,0.622c0.315,0.01,0.603-0.072,0.85-0.275
					c0.106-0.087,0.205-0.183,0.313-0.267c0.145-0.114,0.276-0.128,0.45-0.008c0.423,0.292,0.698,0.715,1.022,1.093
					c0.144,0.168,0.093,0.339-0.094,0.465c-0.126,0.085-0.253,0.169-0.369,0.267c-0.091,0.077-0.088,0.189-0.053,0.296
					c0.038,0.118,0.133,0.186,0.244,0.16c0.412-0.095,0.855-0.103,1.213-0.359c0.18-0.129,0.354-0.239,0.578-0.235
					c0.23,0.004,0.323-0.142,0.372-0.331c0.076-0.294,0.166-0.588,0.153-0.896c-0.009-0.224,0.059-0.381,0.29-0.455
					c0.099-0.031,0.193-0.092,0.277-0.156c0.459-0.35,0.472-0.678,0.049-1.053c-0.057-0.05-0.117-0.097-0.177-0.144
					c-0.475-0.374-0.439-0.905,0.081-1.208c0.132-0.077,0.263-0.153,0.393-0.233c0.368-0.224,0.698-0.473,0.859-0.907
					c0.1-0.268,0.328-0.441,0.628-0.466c0.197-0.016,0.396-0.005,0.594-0.005c0.079,0,0.159,0.017,0.198,0.09
					c0.06,0.112-0.041,0.164-0.104,0.221c-0.293,0.263-0.548,0.563-0.905,0.76c-0.346,0.191-0.594,0.464-0.509,0.926
					c0.12,0.655,0.377,1.181,1.091,1.347c0.03,0.007,0.06,0.012,0.088,0.023c0.277,0.111,0.438,0.335,0.424,0.586
					c-0.019,0.333-0.142,0.53-0.471,0.583c-0.437,0.07-0.629,0.325-0.689,0.727c-0.016,0.105-0.031,0.21-0.052,0.314
					c-0.118,0.597-0.449,0.915-0.982,0.87c-0.152-0.013-0.301,0.038-0.451,0.054c-0.525,0.058-0.976,0.332-1.469,0.483
					c-0.135,0.041-0.252,0.105-0.366-0.041c-0.303-0.388-0.658-0.374-1.049-0.134c-0.142,0.087-0.287,0.129-0.47,0.043
					c-0.405-0.189-0.524-0.349-0.397-0.783c0.085-0.293,0.066-0.572,0.024-0.856c-0.023-0.162-0.119-0.281-0.312-0.264
					c-0.291,0.025-0.654,0.367-0.746,0.659c-0.113,0.356-0.112,0.712-0.059,1.072c0.036,0.248-0.047,0.409-0.274,0.512
					c-0.221,0.101-0.43,0.232-0.656,0.32c-0.354,0.139-0.659,0.361-0.846,0.672c-0.252,0.42-0.665,0.614-1.038,0.862
					c-0.183,0.121-0.355,0.217-0.429,0.44c-0.118,0.354-0.51,0.348-0.752,0.544c-0.135,0.109-0.286,0.011-0.433-0.032
					c-0.212-0.062-0.459-0.084-0.572,0.14c-0.175,0.346-0.463,0.409-0.796,0.416c-0.215,0.005-0.425,0.038-0.625,0.118
					c-0.088,0.035-0.169,0.079-0.171,0.188c-0.003,0.164,0.27,0.506,0.447,0.511c0.615,0.018,0.937,0.451,1.262,0.872
					c0.205,0.266,0.277,0.569,0.154,0.904c-0.058,0.156-0.081,0.321-0.099,0.49c-0.042,0.403-0.119,0.463-0.514,0.471
					c-0.107,0.002-0.215,0.009-0.32-0.005c-0.813-0.102-1.632-0.057-2.448-0.095c-0.092-0.004-0.184,0.004-0.261,0.063
					c-0.293,0.224-0.721,0.35-0.515,0.89c0.077,0.201-0.094,0.451-0.02,0.675c0.088,0.266,0.02,0.506-0.054,0.757
					c-0.065,0.223-0.194,0.412-0.283,0.622c-0.046,0.11-0.143,0.249-0.041,0.341c0.265,0.241,0.22,0.551,0.235,0.849
					c0.011,0.233,0.133,0.325,0.352,0.319c0.076-0.002,0.154,0.006,0.228-0.009c0.386-0.075,0.707,0.028,1.015,0.278
					c0.241,0.196,0.569,0.288,0.854,0.143c0.233-0.118,0.461-0.17,0.699-0.148c0.63,0.058,1.024-0.361,1.399-0.735
					c0.181-0.18,0.253-0.5,0.433-0.727c0.036-0.045,0.029-0.161-0.004-0.218c-0.117-0.202-0.01-0.346,0.098-0.497
					c0.115-0.161,0.238-0.318,0.334-0.49c0.111-0.198,0.245-0.314,0.486-0.358c0.326-0.059,0.543-0.325,0.773-0.542
					c0.162-0.153,0.087-0.374,0.094-0.568c0.013-0.355,0.24-0.572,0.628-0.556c0.225,0.01,0.447,0.081,0.671,0.117
					c0.148,0.024,0.318,0.121,0.443,0.03c0.294-0.213,0.632-0.346,0.925-0.549c0.363-0.25,0.404-0.276,0.738-0.016
					c0.123,0.096,0.221,0.212,0.285,0.352c0.118,0.257,0.312,0.446,0.523,0.625c0.455,0.384,0.938,0.72,1.499,0.935
					c0.411,0.157,0.695,0.486,0.979,0.798c0.254,0.279,0.078,0.688-0.288,0.809c-0.372,0.122-0.75,0.102-1.129,0.112
					c-0.127,0.003-0.257,0.028-0.297,0.164c-0.042,0.145,0.072,0.221,0.182,0.28c0.335,0.18,0.695,0.306,1.028,0.494
					c0.213,0.12,0.409,0.001,0.4-0.253c-0.01-0.303,0.123-0.446,0.382-0.531c0.321-0.105,0.373-0.409,0.497-0.665
					c0.094-0.195,0.03-0.337-0.062-0.508c-0.103-0.191,0.008-0.316,0.226-0.314c0.152,0.002,0.244,0.116,0.369,0.165
					c0.164,0.063,0.263-0.013,0.264-0.189c0.001-0.198-0.135-0.305-0.273-0.395c-0.331-0.216-0.677-0.408-1.007-0.626
					c-0.153-0.101-0.298-0.177-0.483-0.226c-0.32-0.084-0.644-0.239-0.791-0.558c-0.114-0.249-0.27-0.432-0.485-0.584
					c-0.073-0.052-0.141-0.12-0.19-0.195c-0.114-0.173-0.097-0.476,0.031-0.596c0.146-0.137,0.337-0.206,0.498-0.079
					c0.295,0.233,0.655,0.385,0.869,0.726c0.15,0.239,0.402,0.379,0.674,0.432c0.193,0.038,0.342,0.119,0.47,0.253
					c0.096,0.101,0.208,0.177,0.333,0.237c0.521,0.251,0.749,0.685,0.777,1.245c0.007,0.135-0.018,0.283,0.082,0.394
					c0.358,0.395,0.524,0.931,0.938,1.284c0.136,0.116,0.213,0.284,0.218,0.441c0.015,0.454,0.335,0.532,0.672,0.599
					c0.272,0.054,0.349,0.004,0.438-0.258c0.193-0.573,0.398-1.146,0.089-1.745c-0.013-0.026-0.015-0.059-0.019-0.089
					c-0.037-0.268,0.21-0.696,0.422-0.733c0.393-0.067,0.799,0.203,0.842,0.567c0.021,0.181,0.035,0.365,0.032,0.547
					c-0.007,0.383,0.127,0.726,0.341,1.023c0.185,0.257,0.419,0.476,0.791,0.45c0.295-0.02,0.572,0.099,0.833,0.212
					c0.222,0.096,0.404,0.132,0.582-0.045c0.126-0.126,0.257-0.118,0.418-0.078c0.221,0.055,0.438,0.107,0.648,0.205
					c0.303,0.141,0.612,0.146,0.901-0.068c0.096-0.071,0.209-0.132,0.323-0.163c0.305-0.081,0.648,0.086,0.685,0.368
					c0.045,0.344,0.126,0.711,0.006,1.042c-0.114,0.316-0.209,0.629-0.268,0.959c-0.048,0.268-0.106,0.542-0.216,0.787
					c-0.142,0.315-0.14,0.608-0.04,0.928c0.124,0.394,0.326,0.749,0.492,1.121c0.282,0.632,0.641,1.205,1.083,1.732
					c0.196,0.235,0.365,0.489,0.47,0.778c0.06,0.166,0.162,0.29,0.308,0.383c0.291,0.186,0.47,0.467,0.645,0.755
					c0.178,0.295,0.218,0.631,0.297,0.954c0.106,0.432,0.285,0.797,0.714,1.001c0.119,0.057,0.233,0.154,0.313,0.261
					c0.424,0.57,0.818,1.179,1.068,1.829c0.274,0.712,0.681,1.351,0.962,2.054c0.101,0.253,0.322,0.438,0.586,0.549
					c0.245,0.103,0.399-0.067,0.575-0.179c0.037-0.024,0.087-0.028,0.129-0.046c0.812-0.333,1.632-0.649,2.383-1.114
					c0.145-0.09,0.314-0.11,0.476-0.152c0.333-0.086,0.625-0.239,0.785-0.57c0.096-0.199,0.261-0.353,0.44-0.452
					c0.501-0.276,1.008-0.528,1.474-0.873c0.53-0.391,1.085-0.728,1.205-1.451c0.025-0.15,0.115-0.278,0.196-0.409
					c0.215-0.349,0.432-0.698,0.531-1.106c0.038-0.156,0.063-0.295-0.053-0.428c-0.179-0.207-0.35-0.422-0.533-0.625
					c-0.136-0.151-0.298-0.273-0.518-0.232c-0.269,0.049-0.43-0.087-0.566-0.292c-0.067-0.101-0.154-0.189-0.225-0.288
					c-0.396-0.549-0.8-0.562-1.179-0.025c-0.119,0.169-0.255,0.313-0.45,0.368c-0.357,0.101-0.725,0.083-1.089,0.05
					c-0.13-0.012-0.227-0.09-0.193-0.249c0.159-0.74-0.264-1.129-0.856-1.417c-0.61-0.298-1.053-0.762-1.303-1.391
					c-0.145-0.363,0.15-0.7,0.536-0.66c0.542,0.057,0.762,0.454,0.931,0.887c0.079,0.202,0.125,0.444,0.329,0.524
					c0.55,0.215,0.989,0.637,1.592,0.772c0.313,0.07,0.578,0.131,0.871-0.005c0.109-0.051,0.223-0.087,0.33-0.15
					c0.225-0.132,0.299-0.103,0.431,0.129c0.037,0.066,0.069,0.137,0.092,0.209c0.091,0.276,0.277,0.414,0.568,0.451
					c0.391,0.051,0.777,0.141,1.168,0.199c0.816,0.122,1.63,0.171,2.443-0.042c0.169-0.044,0.343-0.074,0.518-0.094
					c-2.242-10.566-7.743-19.883-15.371-26.897c-0.059,0.016-0.117,0.032-0.176,0.048
					C242.956,130.582,242.649,130.549,242.338,130.315z"/>
				<path fill="#FFFFFF" d="M251.245,168.344c-0.368,0.229-0.787,0.212-1.18,0.316c-0.643,0.17-1.256,0.437-1.918,0.551
					c-0.49,0.084-1.042-0.21-1.059-0.677c-0.014-0.378-0.208-0.618-0.435-0.865c-0.226-0.246-0.472-0.479-0.666-0.748
					c-0.158-0.218-0.318-0.367-0.588-0.455c-0.549-0.177-0.872-0.554-0.909-1.17c-0.022-0.367-0.183-0.704-0.441-0.982
					c-0.433-0.466-0.726-0.979-0.786-1.644c-0.04-0.444-0.209-0.89-0.527-1.241c-0.37-0.408-0.688-0.847-0.872-1.373
					c-0.07-0.201-0.19-0.385-0.26-0.582c-0.192-0.539-0.682-0.942-0.614-1.615c0.038-0.383-0.196-0.787-0.271-1.189
					c-0.116-0.617-0.586-0.905-1.063-1.171c-0.387-0.216-0.773-0.091-1.107,0.163c-0.22,0.168-0.426,0.197-0.674,0.066
					c-0.174-0.092-0.375-0.116-0.568-0.159c-0.591-0.132-1.197-0.2-1.757-0.465c-0.255-0.121-0.529-0.171-0.767-0.363
					c-0.238-0.192-0.568-0.205-0.878-0.136c-0.118,0.026-0.226,0.082-0.352,0.09c-0.296,0.019-0.429,0.264-0.594,0.457
					c-0.144,0.167-0.06,0.333,0,0.512c0.095,0.286-0.05,0.47-0.352,0.495c-0.181,0.015-0.326-0.061-0.457-0.173
					c-0.289-0.247-0.624-0.376-1.003-0.381c-0.29-0.004-0.503-0.113-0.585-0.407c-0.113-0.406-0.436-0.522-0.797-0.572
					c-0.164-0.023-0.337-0.022-0.502-0.001c-0.407,0.052-0.749-0.117-1.075-0.313c-0.349-0.209-0.426-0.556-0.235-0.923
					c0.072-0.138,0.12-0.278,0.108-0.437c-0.019-0.243-0.025-0.482,0.02-0.727c0.046-0.252-0.11-0.476-0.344-0.511
					c-0.239-0.036-0.5-0.078-0.72,0.035c-0.193,0.099-0.375,0.079-0.572,0.085c-0.433,0.013-0.888-0.115-1.287,0.171
					c-0.097,0.069-0.203,0.041-0.304-0.006c-0.263-0.123-0.529-0.083-0.803-0.033c-0.506,0.093-0.998,0.258-1.527,0.23
					c-0.264-0.014-0.499,0.128-0.672,0.338c-0.08,0.096-0.167,0.161-0.285,0.211c-0.538,0.229-1.111,0.296-1.681,0.363
					c-0.282,0.033-0.558,0.035-0.817-0.18c-0.213-0.177-0.505-0.062-0.655,0.183c-0.095,0.155-0.217,0.302-0.275,0.471
					c-0.104,0.299-0.317,0.454-0.581,0.603c-0.637,0.361-1.122,0.881-1.313,1.598c-0.118,0.441-0.308,0.83-0.588,1.172
					c-0.312,0.381-0.582,0.821-1.115,0.959c-0.179,0.046-0.298,0.177-0.378,0.365c-0.095,0.22-0.202,0.505-0.388,0.601
					c-0.381,0.198-0.487,0.511-0.576,0.871c-0.029,0.116-0.085,0.229-0.144,0.334c-0.286,0.514-0.645,0.98-0.899,1.522
					c-0.262,0.558-0.363,1.057-0.129,1.645c0.232,0.586,0.431,1.197,0.203,1.846c-0.035,0.099-0.039,0.209-0.054,0.314
					c-0.033,0.234-0.137,0.423-0.31,0.59c-0.262,0.253-0.387,0.568-0.382,0.943c0.008,0.701,0.304,1.289,0.685,1.849
					c0.117,0.173,0.324,0.218,0.474,0.348c0.268,0.232,0.432,0.549,0.693,0.782c0.175,0.156,0.306,0.335,0.373,0.561
					c0.258,0.869,0.799,1.532,1.559,1.997c0.443,0.271,0.859,0.57,1.25,0.908c0.398,0.343,0.82,0.439,1.296,0.163
					c0.117-0.068,0.251-0.11,0.382-0.151c0.491-0.153,0.962-0.299,1.506-0.13c0.337,0.104,0.709,0.252,1.107,0.072
					c0.483-0.218,0.988-0.404,1.46-0.631c0.476-0.229,0.941-0.315,1.444-0.317c0.595-0.003,0.941,0.242,1.136,0.797
					c0.184,0.524,0.317,0.601,0.881,0.507c0.415-0.068,0.811-0.038,1.189,0.173c0.476,0.265,0.554,0.436,0.464,0.994
					c-0.046,0.286-0.204,0.549-0.187,0.842c0.023,0.39-0.053,0.755-0.199,1.113c-0.058,0.141-0.115,0.289-0.043,0.441
					c0.111,0.232,0.175,0.484,0.347,0.69c0.323,0.384,0.62,0.79,0.945,1.172c0.272,0.319,0.474,0.657,0.526,1.085
					c0.033,0.271,0.149,0.522,0.3,0.756c0.168,0.26,0.274,0.547,0.257,0.862c-0.029,0.546,0.113,1.052,0.328,1.547
					c0.253,0.583,0.216,1.126-0.27,1.59c-0.205,0.196-0.31,0.434-0.353,0.72c-0.067,0.45-0.24,0.878-0.349,1.317
					c-0.105,0.421-0.101,0.87-0.127,1.308c-0.009,0.152,0.076,0.294,0.167,0.418c0.208,0.286,0.332,0.613,0.474,0.933
					c0.19,0.43,0.322,0.896,0.661,1.243c0.302,0.31,0.373,0.678,0.344,1.089c-0.02,0.288-0.058,0.585,0.04,0.862
					c0.104,0.293,0.138,0.59,0.156,0.895c0.029,0.481,0.119,0.997,0.455,1.313c0.586,0.55,0.879,1.204,1.032,1.958
					c0.003,0.015,0.008,0.03,0.016,0.043c0.154,0.275,0.202,0.571,0.167,0.987c-0.108,0.312,0.164,0.66,0.221,1.045
					c0.008,0.055,0.044,0.13,0.088,0.152c0.31,0.151,0.599,0.384,0.974,0.324c0.581-0.092,1.182-0.079,1.739-0.314
					c0.068-0.029,0.149-0.04,0.223-0.038c0.587,0.017,1.13-0.144,1.684-0.327c0.561-0.185,0.994-0.497,1.359-0.94
					c0.135-0.164,0.269-0.337,0.434-0.467c0.285-0.224,0.474-0.509,0.631-0.825c0.157-0.317,0.351-0.621,0.621-0.838
					c0.317-0.255,0.474-0.582,0.594-0.945c0.052-0.159,0.12-0.318,0.14-0.481c0.075-0.599,0.412-0.989,0.933-1.257
					c0.204-0.105,0.39-0.261,0.469-0.482c0.216-0.606,0.377-1.221,0.131-1.863c-0.043-0.113-0.074-0.233-0.096-0.352
					c-0.101-0.545,0.069-0.998,0.515-1.32c0.191-0.138,0.339-0.307,0.471-0.489c0.139-0.192,0.306-0.325,0.525-0.417
					c0.527-0.221,0.991-0.536,1.355-0.983c0.347-0.426,0.552-0.889,0.478-1.466c-0.054-0.419-0.044-0.842,0.032-1.27
					c0.084-0.476,0.088-0.959-0.242-1.394c-0.218-0.287-0.395-0.637-0.382-1.007c0.022-0.616-0.067-1.209-0.206-1.803
					c-0.057-0.241-0.031-0.491,0.125-0.696c0.104-0.137,0.165-0.29,0.229-0.444c0.245-0.591,0.498-1.175,1.033-1.578
					c0.094-0.071,0.162-0.181,0.234-0.279c0.279-0.381,0.535-0.779,0.836-1.141c0.27-0.326,0.529-0.69,0.918-0.878
					c0.928-0.448,1.512-1.225,1.966-2.089c0.509-0.967,0.925-1.983,1.376-2.98c0.043-0.094,0.039-0.209,0.071-0.309
					c0.133-0.417-0.036-0.847,0.061-1.268C251.646,168.462,251.391,168.253,251.245,168.344z"/>
				<path fill="#FFFFFF" d="M159.511,159.709c-0.027,0.24,0.071,0.406,0.266,0.538c0.376,0.254,0.631,0.614,0.831,1.011
					c0.123,0.245,0.244,0.486,0.401,0.713c0.224,0.323,0.234,0.679,0.076,1.039c-0.241,0.552-0.04,1.085,0.508,1.35
					c0.054,0.026,0.126,0.044,0.155,0.089c0.242,0.368,0.603,0.542,1.01,0.653c0.068,0.019,0.132,0.078,0.181,0.134
					c0.208,0.236,0.476,0.38,0.759,0.495c0.578,0.235,1.159,0.464,1.742,0.686c0.263,0.1,0.534,0.109,0.806,0.018
					c0.144-0.048,0.296-0.075,0.437-0.129c0.208-0.08,0.393-0.03,0.562,0.086c0.137,0.094,0.276,0.188,0.375,0.33
					c0.689,0.988,1.725,1.332,2.841,1.519c0.276,0.046,0.496,0.196,0.629,0.416c0.161,0.268,0.328,0.541,0.374,0.869
					c0.067,0.481,0.287,0.841,0.787,1.017c0.279,0.098,0.547,0.267,0.683,0.572c0.109,0.246,0.329,0.361,0.582,0.383
					c0.303,0.027,0.557,0.115,0.753,0.366c0.133,0.169,0.335,0.125,0.51,0.08c0.162-0.042,0.185-0.188,0.174-0.332
					c-0.01-0.127,0.014-0.237,0.09-0.343c0.095-0.133,0.121-0.3,0.027-0.428c-0.102-0.139-0.29-0.106-0.427-0.066
					c-0.382,0.112-0.684-0.015-0.963-0.258c-0.092-0.08-0.181-0.164-0.277-0.238c-0.392-0.302-0.488-0.738-0.336-1.149
					c0.207-0.561,0.149-1.18,0.445-1.716c0.094-0.17,0.034-0.39,0.024-0.587c-0.005-0.099-0.073-0.158-0.148-0.217
					c-0.454-0.362-0.967-0.492-1.536-0.391c-0.213,0.038-0.424,0.01-0.635,0.008c-0.179-0.002-0.277-0.091-0.332-0.255
					c-0.109-0.324-0.073-0.635,0.12-0.909c0.213-0.302,0.356-0.631,0.491-0.973c0.159-0.4,0.097-0.868,0.439-1.22
					c0.15-0.154-0.01-0.362-0.253-0.41c-0.607-0.12-1.17,0.045-1.726,0.258c-0.173,0.066-0.264,0.188-0.282,0.377
					c-0.031,0.322-0.152,0.618-0.285,0.91c-0.166,0.364-0.348,0.488-0.749,0.452c-0.32-0.029-0.632-0.027-0.952,0.028
					c-0.573,0.098-1.141-0.297-1.423-0.818c-0.322-0.595-0.278-1.228-0.33-1.855c-0.007-0.089,0.023-0.18,0.031-0.271
					c0.052-0.555,0.266-1.059,0.494-1.557c0.116-0.253,0.203-0.503,0.186-0.788c-0.018-0.307,0.087-0.579,0.343-0.758
					c0.297-0.207,0.566-0.452,0.911-0.596c0.32-0.134,0.642-0.275,0.933-0.477c0.262-0.181,0.537-0.198,0.863-0.086
					c0.53,0.18,1.102,0.174,1.655,0.252c0.147,0.021,0.209-0.076,0.283-0.182c0.131-0.188,0.281-0.363,0.522-0.419
					c0.281-0.065,0.56-0.141,0.843-0.19c0.27-0.047,0.532-0.003,0.671,0.264c0.113,0.217,0.26,0.254,0.484,0.222
					c0.522-0.074,0.802,0.213,0.735,0.737c-0.025,0.199-0.016,0.391,0.029,0.587c0.111,0.479,0.274,0.929,0.56,1.337
					c0.205,0.293,0.343,0.336,0.604,0.091c0.277-0.26,0.421-0.58,0.44-0.97c0.024-0.484-0.12-0.933-0.233-1.389
					c-0.225-0.91,0.034-1.663,0.766-2.219c0.602-0.457,1.231-0.882,1.914-1.219c0.385-0.19,0.769-0.347,1.011-0.769
					c0.15-0.261,0.341-0.506,0.407-0.797c0.102-0.447,0.33-0.816,0.615-1.155c0.342-0.406,0.697-0.802,1.053-1.195
					c0.396-0.438,0.833-0.741,1.419-0.816c0.277-0.035,0.519-0.17,0.771-0.273c0.174-0.072,0.271-0.197,0.248-0.391
					c-0.032-0.26,0.112-0.425,0.283-0.589c0.26-0.248,0.627-0.322,0.891-0.513c0.363-0.264,0.716-0.193,1.082-0.21
					c0.192-0.009,0.327,0.075,0.411,0.286c0.108,0.272,0.316,0.301,0.54,0.111c0.139-0.118,0.259-0.258,0.389-0.387
					c0.098-0.097,0.199-0.212,0.346-0.199c0.453,0.042,0.846-0.237,1.294-0.223c0.103,0.003,0.21-0.035,0.31-0.069
					c0.235-0.079,0.289-0.323,0.114-0.501c-0.077-0.079-0.173-0.115-0.285-0.129c-0.165-0.022-0.33-0.055-0.494-0.087
					c-0.473-0.093-0.668-0.393-0.554-0.858c0.052-0.211,0.145-0.412,0.309-0.551c0.249-0.211,0.34-0.468,0.262-0.771
					c-0.053-0.207,0.059-0.282,0.206-0.344c0.346-0.146,0.717-0.175,1.078-0.122c0.444,0.065,0.868,0.077,1.301-0.068
					c0.236-0.079,0.407,0.148,0.304,0.383c-0.08,0.181-0.206,0.339-0.358,0.469c-0.195,0.167-0.274,0.394-0.357,0.625
					c-0.065,0.184-0.042,0.284,0.171,0.321c0.286,0.05,0.568,0.1,0.859,0.029c0.304-0.074,0.613-0.081,0.882,0.1
					c0.265,0.178,0.571,0.209,0.864,0.271c0.421,0.09,0.718-0.29,0.56-0.699c-0.098-0.253-0.124-0.496,0-0.749
					c0.188-0.385,0.182-0.393-0.207-0.544c-0.327-0.127-0.393-0.28-0.376-0.622c0.024-0.464,0.277-0.861,0.334-1.318
					c0.035-0.275,0.018-0.475-0.214-0.634c-0.102-0.07-0.202-0.143-0.19-0.288c0.02-0.259-0.163-0.35-0.36-0.399
					c-0.512-0.125-0.648-0.503-0.669-0.961c-0.012-0.274,0-0.549-0.009-0.823c-0.015-0.47-0.154-0.897-0.46-1.261
					c-0.233-0.278-0.311-0.293-0.597-0.071c-0.361,0.28-0.738,0.535-1.128,0.773c-0.26,0.158-0.549,0.139-0.762-0.044
					c-0.194-0.166-0.217-0.341-0.082-0.662c0.029-0.07,0.068-0.136,0.098-0.206c0.121-0.28,0.108-0.402-0.14-0.533
					c-0.224-0.119-0.378-0.294-0.548-0.468c-0.166-0.169-0.339-0.367-0.594-0.398c-0.482-0.059-0.967-0.101-1.455-0.102
					c-0.178,0-0.342,0.054-0.462,0.168c-0.307,0.291-0.42,0.706-0.642,1.053c0.063,0.541-0.247,0.813-0.706,0.976
					c-0.043,0.015-0.088,0.028-0.127,0.051c-0.235,0.138-0.257,0.253-0.092,0.472c0.271,0.361,0.275,0.465,0.04,0.849
					c-0.162,0.265-0.384,0.457-0.647,0.628c-0.404,0.261-0.875,0.348-1.294,0.565c-0.195,0.101-0.34,0.21-0.323,0.442
					c0.026,0.375-0.235,0.685-0.227,1.062c0.003,0.144-0.15,0.258-0.287,0.334c-0.12,0.066-0.243,0.126-0.366,0.187
					c-0.305,0.15-0.477,0.1-0.613-0.211c-0.107-0.243-0.135-0.493,0.025-0.739c0.19-0.293,0.289-0.638,0.527-0.905
					c0.112-0.126,0.056-0.235-0.083-0.283c-0.245-0.083-0.497-0.136-0.76-0.134c-0.55,0.003-1.028-0.269-1.39-0.608
					c-0.343-0.321-0.706-0.519-1.132-0.623c-0.253-0.062-0.354-0.196-0.398-0.428c-0.033-0.177-0.022-0.37-0.138-0.525
					c-0.177-0.235-0.069-0.425,0.085-0.613c0.186-0.228,0.443-0.372,0.669-0.549c0.618-0.483,1.293-0.859,2.086-0.962
					c0.4-0.052,0.707-0.271,0.985-0.53c0.191-0.178,0.403-0.259,0.655-0.279c0.413-0.033,0.791,0.058,1.1,0.338
					c0.155,0.141,0.294,0.127,0.455,0.042c0.229-0.121,0.459-0.239,0.687-0.36c0.16-0.085,0.309-0.095,0.471,0.013
					c0.139,0.093,0.294,0.16,0.471,0.151c0.132-0.007,0.239-0.054,0.294-0.179c0.051-0.116-0.001-0.214-0.092-0.281
					c-0.171-0.125-0.243-0.302-0.297-0.496c-0.101-0.362-0.037-0.487,0.336-0.511c0.26-0.017,0.467-0.114,0.666-0.262
					c0.336-0.25,0.738-0.422,0.923-0.844c0.046-0.104,0.167-0.175,0.252-0.262c0.117-0.119,0.234-0.235,0.31-0.391
					c0.136-0.281,0.382-0.384,0.678-0.339c0.229,0.035,0.453,0.025,0.682,0.02c0.327-0.008,0.647,0.078,0.845,0.355
					c0.13,0.181,0.273,0.306,0.47,0.406c0.294,0.148,0.313,0.34,0.065,0.572c-0.188,0.176-0.399,0.328-0.634,0.443
					c-0.134,0.066-0.295,0.126-0.338,0.288c-0.075,0.283-0.301,0.314-0.53,0.344c-0.262,0.035-0.513-0.022-0.763-0.099
					c-0.398-0.122-0.817,0.097-0.947,0.481c-0.055,0.163-0.013,0.269,0.174,0.286c0.499,0.043,0.997,0.159,1.497,0.036
					c0.196-0.048,0.33,0.027,0.432,0.172c0.078,0.111,0.152,0.234,0.188,0.363c0.083,0.3,0.296,0.446,0.565,0.544
					c0.3,0.11,0.6,0.219,0.898,0.334c0.275,0.106,0.505,0.091,0.76-0.106c0.275-0.212,0.532-0.449,0.831-0.636
					c0.392-0.245,0.457-0.622,0.243-1.033c-0.07-0.135-0.143-0.269-0.205-0.408c-0.045-0.101-0.067-0.215,0.046-0.285
					c0.103-0.064,0.201-0.019,0.294,0.048c0.178,0.127,0.268,0.33,0.422,0.478c0.246,0.236,0.457,0.252,0.725,0.042
					c0.204-0.159,0.404-0.322,0.604-0.487c0.283-0.233,0.315-0.366,0.187-0.716c-0.07-0.192-0.173-0.346-0.368-0.443
					c-0.439-0.217-0.736-0.534-0.676-1.071c0.029-0.256-0.101-0.433-0.287-0.587c-0.302-0.25-0.654-0.387-1.033-0.457
					c-0.428-0.079-0.727-0.322-0.867-0.722c-0.089-0.256-0.256-0.355-0.493-0.41c-0.617-0.145-1.248-0.136-1.862-0.06
					c-0.426,0.053-0.844,0.083-1.269,0.09c-0.289,0.002-0.581-0.018-0.867,0.011c-0.284,0.029-0.584,0.037-0.827,0.221
					c-0.291,0.22-0.583,0.442-0.86,0.679c-0.355,0.303-0.386,0.439-0.227,0.878c0.037,0.101,0.1,0.194,0.043,0.302
					c-0.113,0.215-0.289,0.356-0.534,0.376c-0.23,0.019-0.466,0.021-0.604-0.222c-0.151-0.267-0.258-0.545-0.299-0.855
					c-0.036-0.277-0.245-0.453-0.453-0.394c-0.365,0.104-0.745,0.195-1.051,0.423c-0.335,0.249-0.687,0.494-0.517,1.039
					c0.097,0.31-0.005,0.365-0.279,0.538c-0.215,0.135-0.414,0.069-0.614,0.026c-0.333-0.071-0.683-0.111-0.987,0.01
					c-0.238,0.095-0.462,0.125-0.704,0.128c-0.274,0.004-0.544,0.015-0.817,0.062c-0.382,0.065-0.751,0.041-1.053-0.28
					c-0.198-0.21-0.499-0.266-0.764-0.213c-0.476,0.096-0.961,0.14-1.431,0.273c-0.733,0.207-1.465,0.32-2.125-0.223
					c-0.137-0.113-0.295-0.143-0.459-0.144c-7.196,6.93-12.356,15.954-14.511,26.084c0.264,0.368,0.323,0.846,0.591,1.215
					C159.527,159.539,159.52,159.635,159.511,159.709z"/>
				<path fill="#FFFFFF" d="M200.731,179.884c-0.433-0.052-0.767-0.268-1.044-0.594c-0.108-0.127-0.228-0.249-0.361-0.35
					c-0.378-0.287-0.762-0.571-1.287-0.445c-0.684,0.121-1.271-0.215-1.805-0.524c-0.891-0.514-1.86-0.83-2.791-1.235
					c-0.419-0.182-0.639-0.43-0.749-0.83c-0.04-0.145-0.033-0.307-0.142-0.427c-0.267-0.293-0.375-0.649-0.454-1.029
					c-0.055-0.262-0.116-0.56-0.367-0.713c-0.254-0.155-0.448-0.361-0.64-0.578c-0.071-0.08-0.148-0.157-0.258-0.182
					c-0.5-0.115-0.972-0.34-1.511-0.288c-0.718,0.07-1.217-0.307-1.565-0.891c-0.203-0.341-0.437-0.617-0.83-0.732
					c-0.261-0.076-0.388-0.286-0.467-0.524c-0.057-0.172,0.062-0.322,0.096-0.483c0.037-0.176,0.105-0.378-0.121-0.477
					c-0.207-0.091-0.427-0.201-0.658-0.128c-0.269,0.085-0.54,0.081-0.813,0.083c-0.203,0.001-0.384,0.03-0.55,0.17
					c-0.26,0.219-0.575,0.235-0.853,0.068c-0.235-0.141-0.481-0.184-0.736-0.21c-0.284-0.028-0.53-0.132-0.751-0.302
					c-0.315-0.241-0.689-0.379-1.036-0.554c-0.258-0.131-0.586-0.13-0.885-0.173c-0.117-0.017-0.234,0.002-0.33,0.109
					c-0.297,0.33-0.684,0.455-1.115,0.554c-0.5,0.114-0.962,0.338-1.096,0.945c-0.095,0.429-0.662,0.724-1.112,0.636
					c-0.167-0.033-0.333-0.029-0.5-0.015c-0.079,0.007-0.161,0.037-0.166,0.126c-0.011,0.185-0.119,0.403,0.127,0.523
					c0.099,0.048,0.131,0.124,0.127,0.219c-0.007,0.181,0.087,0.327,0.177,0.462c0.297,0.445,0.348,0.937,0.296,1.445
					c-0.045,0.435-0.082,0.87-0.338,1.262c-0.148,0.226-0.369,0.357-0.541,0.547c-0.206,0.228-0.307,0.541-0.552,0.72
					c-0.46,0.334-0.601,0.834-0.71,1.333c-0.07,0.318-0.1,0.688,0.08,0.984c0.269,0.442,0.184,0.805-0.147,1.154
					c-0.131,0.138-0.215,0.304-0.198,0.494c0.052,0.556,0.166,1.082,0.678,1.427c0.441,0.297,0.648,0.754,0.785,1.246
					c0.075,0.269,0.183,0.512,0.384,0.712c0.395,0.391,0.68,0.869,0.926,1.352c0.211,0.414,0.456,0.812,0.635,1.25
					c0.204,0.501,0.663,0.857,1.046,1.245c0.029,0.029,0.084,0.033,0.126,0.05c0.324,0.133,0.652,0.255,0.969,0.402
					c0.603,0.278,1.092,0.71,1.542,1.189c0.105,0.112,0.135,0.265,0.182,0.412c0.233,0.722,0.204,1.475,0.245,2.213
					c0.06,1.062,0.096,2.124,0.216,3.182c0.02,0.18,0.025,0.371-0.013,0.545c-0.102,0.471-0.052,0.931-0.003,1.404
					c0.059,0.566,0.298,1.079,0.395,1.634c0.1,0.578,0.145,1.135,0.02,1.717c-0.098,0.457-0.112,0.932-0.159,1.399
					c-0.011,0.105-0.011,0.216,0.042,0.313c0.312,0.571,0.415,1.199,0.533,1.829c0.083,0.442,0.226,0.865,0.543,1.229
					c0.527,0.603,0.746,1.346,0.824,2.134c0.022,0.229,0.084,0.447,0.214,0.641c0.147,0.22,0.217,0.462,0.255,0.724
					c0.069,0.466,0.151,0.93,0.455,1.318c0.055,0.07,0.074,0.166,0.121,0.242c0.371,0.605,0.612,1.294,1.14,1.797
					c0.348,0.332,0.704,0.618,1.251,0.408c0.402-0.154,0.97,0.154,1.081,0.585c0.074,0.287,0.24,0.354,0.486,0.378
					c0.196,0.019,0.397-0.008,0.587,0.071c0.348,0.144,0.715,0.124,1.081,0.122c0.183-0.001,0.349-0.027,0.379-0.237
					c0.028-0.199-0.135-0.292-0.278-0.377c-0.049-0.029-0.118-0.032-0.178-0.032c-0.237,0.001-0.455-0.079-0.652-0.189
					c-0.41-0.227-0.859-0.43-1.05-0.898c-0.108-0.265-0.269-0.456-0.48-0.642c-0.551-0.488-0.457-0.664-0.243-1.098
					c0.026-0.054,0.066-0.116,0.059-0.169c-0.043-0.339,0.187-0.522,0.388-0.734c0.367-0.386,0.283-0.781-0.201-1.015
					c-0.423-0.205-0.576-0.705-0.329-1.097c0.158-0.251,0.285-0.504,0.176-0.813c-0.059-0.166,0.028-0.306,0.129-0.416
					c0.183-0.2,0.276-0.432,0.313-0.695c0.037-0.261,0.141-0.493,0.294-0.708c0.15-0.211,0.262-0.441,0.3-0.705
					c0.048-0.335,0.272-0.534,0.566-0.663c0.111-0.049,0.232-0.073,0.346-0.116c0.532-0.2,0.998-0.461,1.02-1.126
					c0.002-0.059,0.032-0.117,0.053-0.174c0.175-0.486,0.345-0.967,0.795-1.295c0.231-0.168,0.435-0.39,0.56-0.655
					c0.181-0.385,0.346-0.778,0.504-1.174c0.146-0.365,0.231-0.765,0.584-1.006c0.36-0.246,0.268-0.738,0.563-1.017
					c0.066-0.063,0.126-0.132,0.195-0.19c0.164-0.137,0.238-0.314,0.238-0.522c0.001-0.243,0.002-0.48-0.07-0.722
					c-0.286-0.952-0.127-1.342,0.725-1.864c0.144-0.088,0.298-0.15,0.458-0.201c0.144-0.045,0.291-0.087,0.418-0.179
					c0.328-0.238,0.686-0.352,1.101-0.371c0.358-0.017,0.78-0.01,0.928-0.484c0.015-0.048,0.086-0.085,0.138-0.115
					c0.181-0.106,0.241-0.27,0.221-0.465c-0.026-0.258,0.065-0.468,0.208-0.679c0.179-0.264,0.347-0.55,0.327-0.885
					c-0.02-0.327-0.007-0.633,0.202-0.908c0.077-0.101,0.053-0.234,0.057-0.355c0.005-0.152-0.019-0.314,0.024-0.454
					c0.098-0.322,0.05-0.613-0.042-0.933c-0.148-0.52-0.18-1.067,0.191-1.524c0.508-0.624,0.796-1.398,1.379-1.967
					c0.032-0.032,0.062-0.068,0.085-0.107c0.491-0.839,0.672-1.713,0.35-2.664C201.363,180.177,201.142,179.933,200.731,179.884z"/>
				<path fill="#FFFFFF" d="M213.179,131.693c0.693-0.147,0.925-0.524,0.755-1.227c-0.103-0.427-0.019-0.561,0.383-0.714
					c0.719-0.274,1.298-0.707,1.565-1.468c0.04-0.114,0.056-0.238,0.152-0.327c0.207-0.192,0.264-0.438,0.241-0.708
					c-0.018-0.22,0.057-0.417,0.255-0.494c0.494-0.191,0.937-0.505,1.471-0.601c0.418-0.075,0.843-0.127,1.223-0.34
					c0.083-0.046,0.161-0.094,0.139-0.206c-0.017-0.09-0.1-0.111-0.17-0.131c-0.283-0.083-0.574-0.068-0.862-0.05
					c-0.551,0.035-1.109,0.014-1.627-0.148c-0.583-0.182-1.177-0.3-1.771-0.405c-0.978-0.173-1.964-0.202-2.948-0.01
					c-0.384,0.075-0.763,0.134-1.17,0.095c-0.555-0.053-1.122-0.053-1.684,0.04c-0.958,0.16-1.919,0.312-2.894,0.329
					c-0.258,0.005-0.51,0.113-0.77,0.065c-0.981-0.181-1.924,0.239-2.898,0.178c-0.058-0.004-0.121,0.02-0.176,0.043
					c-0.31,0.132-0.634,0.208-0.967,0.245c-0.561,0.062-1.073,0.339-1.644,0.366c-0.14,0.007-0.327,0.027-0.391,0.192
					c-0.081,0.208-0.269,0.237-0.434,0.294c-0.493,0.173-1.017,0.156-1.527,0.22c-0.303,0.038-0.598,0.098-0.893,0.168
					c-0.205,0.049-0.265,0.17-0.266,0.361c-0.003,0.319,0.27,0.694,0.615,0.828c0.306,0.119,0.632,0.157,0.944,0.09
					c0.66-0.143,1.3-0.022,1.944,0.087c0.522,0.089,0.86,0.473,0.895,1c0.018,0.266-0.027,0.518-0.164,0.746
					c-0.158,0.264-0.145,0.53,0.01,0.778c0.144,0.231,0.236,0.489,0.419,0.703c0.245,0.285,0.168,0.441-0.213,0.51
					c-0.81,0.147-1.231,0.641-1.223,1.463c-0.051,0.343,0.131,0.69,0.097,1.06c-0.035,0.385,0.045,0.757,0.206,1.107
					c0.101,0.22,0.225,0.43,0.339,0.644c0.164,0.309,0.215,0.34,0.579,0.255c0.331-0.077,0.595,0.016,0.822,0.258
					c0.531,0.565,0.826,0.362,1.146,0.018c0.298-0.32,0.654-0.594,0.84-1.011c0.047-0.106,0.134-0.215,0.231-0.276
					c0.333-0.21,0.559-0.5,0.744-0.843c0.252-0.466,0.614-0.748,1.191-0.779c0.324-0.018,0.662-0.066,0.988-0.127
					c0.711-0.134,1.365-0.406,1.933-0.869c0.223-0.182,0.462-0.38,0.761-0.388c0.569-0.015,1.106-0.201,1.662-0.276
					c0.409-0.055,0.793-0.197,1.167-0.374C212.515,131.917,212.833,131.766,213.179,131.693z"/>
				<path fill="#FFFFFF" d="M251.019,185.459c-0.055-0.319-0.196-0.608-0.334-0.894c-0.102-0.211-0.255-0.225-0.381-0.036
					c-0.22,0.328-0.452,0.655-0.614,1.011c-0.325,0.718-0.771,1.264-1.594,1.42c-0.199,0.038-0.441,0.077-0.54,0.297
					c-0.154,0.342-0.407,0.663-0.342,1.067c0.037,0.226,0.016,0.463,0.08,0.677c0.168,0.563-0.073,1.025-0.363,1.447
					c-0.213,0.31-0.332,0.607-0.281,0.932c-0.018,0.458,0.09,0.858,0.186,1.254c0.116,0.475,0.674,0.897,1.076,0.814
					c0.279-0.057,0.546-0.176,0.812-0.284c0.079-0.032,0.164-0.105,0.197-0.18c0.136-0.304,0.319-0.589,0.4-0.917
					c0.179-0.725,0.474-1.41,0.726-2.11c0.211-0.584,0.499-1.148,0.579-1.769c0.046-0.357,0.157-0.678,0.342-0.972
					c0.234-0.373,0.286-0.757,0.163-1.177C251.077,185.851,251.053,185.653,251.019,185.459z"/>
				<path fill="#FFFFFF" d="M219.793,138.03c0.192,0.206,0.424,0.337,0.669,0.463c0.214,0.11,0.351,0.314,0.345,0.548
					c-0.007,0.24-0.241,0.224-0.417,0.256c-0.217,0.04-0.353,0.16-0.379,0.391c-0.012,0.105-0.045,0.207-0.057,0.312
					c-0.039,0.35-0.18,0.673-0.268,1.009c-0.081,0.311,0.093,0.462,0.405,0.37c0.043-0.013,0.088-0.03,0.125-0.056
					c0.459-0.33,0.997-0.336,1.525-0.364c0.298-0.016,0.561-0.123,0.825-0.236c0.098-0.042,0.195-0.109,0.198-0.23
					c0.004-0.175,0.128-0.264,0.233-0.373c0.307-0.321,0.282-0.538-0.128-0.664c-0.279-0.086-0.403-0.252-0.453-0.496
					c-0.048-0.237-0.138-0.428-0.35-0.557c-0.061-0.037-0.117-0.101-0.148-0.166c-0.223-0.459-0.503-0.884-0.461-1.448
					c0.036-0.488-0.403-0.86-0.969-0.861c-0.3-0.066-0.556,0.083-0.771,0.399c-0.192,0.281-0.348,0.514-0.278,0.901
					C219.496,137.543,219.576,137.798,219.793,138.03z"/>
				<path fill="#FFFFFF" d="M215.795,133.405c-0.224,0.029-0.45,0.025-0.676,0.064c-0.579,0.1-1.169,0.239-1.748,0.025
					c-0.456-0.168-0.79,0.017-1.113,0.3c-0.148,0.13-0.157,0.255,0,0.373c0.19,0.143,0.3,0.328,0.378,0.551
					c0.078,0.225,0.227,0.374,0.496,0.397c0.39,0.033,0.79,0.026,1.161,0.185c0.026,0.011,0.06,0.005,0.119,0.008
					c0.046-0.014,0.126-0.024,0.189-0.061c0.542-0.316,1.145-0.469,1.738-0.644c0.187-0.055,0.316-0.175,0.433-0.316
					c0.111-0.133,0.127-0.273-0.002-0.407C216.504,133.602,216.233,133.348,215.795,133.405z"/>
				<path fill="#FFFFFF" d="M176.036,162.468c0.244,0.258,0.547,0.433,0.849,0.607c0.129,0.075,0.189,0.177,0.223,0.322
					c0.075,0.316,0.148,0.384,0.426,0.297c0.281-0.088,0.496-0.024,0.729,0.119c0.229,0.141,0.468,0.101,0.689-0.041
					c0.259-0.167,0.266-0.315,0.015-0.479c-0.152-0.1-0.326-0.167-0.477-0.267c-0.304-0.202-0.692-0.278-0.939-0.549
					c-0.419-0.458-0.954-0.683-1.516-0.886c-0.344-0.124-0.675-0.286-1.082-0.239c-0.305-0.057-0.596,0.114-0.908,0.167
					c-0.306,0.053-0.533,0.223-0.737,0.425c-0.11,0.109-0.298,0.247-0.204,0.421c0.113,0.209,0.298,0.016,0.446-0.008
					c0.283-0.045,0.521-0.266,0.818-0.255c0.516,0.02,1.011,0.175,1.515,0.273C175.938,162.384,175.996,162.426,176.036,162.468z"/>
				<path fill="#FFFFFF" d="M219.327,138.383c-0.285-0.199-0.972-0.152-1.241,0.069c-0.184,0.15-0.337,0.341-0.599,0.389
					c-0.311,0.057-0.351,0.103-0.303,0.434c0.04,0.277-0.001,0.519-0.164,0.731c-0.138,0.181-0.101,0.329,0.013,0.497
					c0.108,0.16,0.221,0.294,0.429,0.263c0.154,0.003,0.28-0.053,0.392-0.133c0.266-0.191,0.554-0.316,0.883-0.335
					c0.137-0.008,0.223-0.079,0.276-0.203c0.072-0.167,0.17-0.328,0.163-0.517c-0.007-0.195,0.055-0.329,0.217-0.464
					C219.649,138.9,219.602,138.575,219.327,138.383z"/>
				<path fill="#FFFFFF" d="M180.023,164.555c-0.195,0.023-0.39,0.057-0.582,0.097c-0.092,0.019-0.17,0.077-0.163,0.187
					c0.005,0.086,0.076,0.141,0.149,0.15c0.584,0.07,1.167,0.301,1.751,0.182c0.426-0.086,0.856-0.164,1.282-0.251
					c0.14-0.029,0.278-0.054,0.306-0.219c0.031-0.181-0.103-0.26-0.231-0.352c-0.348-0.248-0.803-0.256-1.143-0.526
					c-0.067-0.053-0.206-0.02-0.311-0.018c-0.136,0.003-0.271,0.015-0.322,0.018c-0.146-0.009-0.209-0.025-0.267-0.014
					c-0.17,0.033-0.384-0.146-0.506,0.049c-0.118,0.187,0.12,0.278,0.189,0.418C180.254,164.441,180.215,164.533,180.023,164.555z"
					/>
			</g>
		</g>
	</g>
	<g>
		<g>
			<defs>
				<path id="SVGID_9_" d="M138.898,239.608v69.57c0.068,2.056,0.744,3.792,2.025,5.215c1.28,1.422,2.82,2.132,4.621,2.132h1.247
					l0.104,1.185h-31.567v-1.185h1.35c1.73,0,3.236-0.711,4.517-2.132c1.28-1.423,1.989-3.121,2.129-5.096v-69.689h-14.018
					c-3.185,0.08-5.712,1.226-7.58,3.438c-1.869,2.213-2.804,5.095-2.804,8.652v1.422h-1.039v-20.622
					c0.968,0.475,2.716,0.948,5.244,1.423c2.527,0.473,4.863,0.711,7.01,0.711h41.848c3.391-0.078,6.16-0.394,8.307-0.948
					c2.146-0.551,3.461-0.948,3.947-1.185v20.622h-1.039v-1.422c0-3.556-0.935-6.439-2.804-8.652
					c-1.869-2.212-4.397-3.357-7.58-3.438H138.898z"/>
			</defs>
			<use xlink:href="#SVGID_9_"  overflow="visible" fill="#FFFFFF"/>
			<clipPath id="SVGID_10_">
				<use xlink:href="#SVGID_9_"  overflow="visible"/>
			</clipPath>
			<g id="XMLID_57_" clip-path="url(#SVGID_10_)">
				<polygon id="XMLID_64_" fill="#FFFFFF" points="-44.742,378.792 -21.06,350 36.461,350 88.489,356.347 151.366,362.396 
					236.393,350 264.861,350 318.852,350.585 356.81,337.176 398.326,329.994 457.265,370.918 443.643,385.818 421.599,398 
					15.847,398 -53.851,398 				"/>
				<path id="XMLID_63_" fill="#FFFFFF" d="M-44.832,290.63l-19.567,44.435L-38.472,378h17.412c0,0-10.256-6.292,16.922-17.444
					s27.179-11.066,27.179-11.066l23.565-0.264l83.45,14.036l113.159-5.09l28.192-5.094l47.447-2.547l29.988-16.09l-16.9-24.534
					l-35.34-2.029L165.618,302.1L36.556,281.708L-44.832,290.63z"/>
				<polygon id="XMLID_62_" fill="#FFFFFF" points="-53.886,266.57 -21.108,316.995 7.357,339.905 22.605,339.95 59.121,327 
					95.361,327 116.626,332.401 158.637,339.976 244.663,328.44 303.513,345.625 320.258,322.664 355.602,328.4 417.059,345.605 
					438.982,385.357 488,402.961 488,322.812 442.966,266.57 103.19,250.959 3.148,250.003 				"/>
				<path id="XMLID_61_" fill="#FFFFFF" d="M-38.472,256.024L-4.138,278H114.34l44.298,26h28.018l26.066-24h12.873l24.016,34.989
					c0,0,62.349-28.769,76.266-18.573c13.917,10.196,67.365,22.916,100.85,6.347s50.5-17.483,50.5-17.483l-9.819-68.512
					l-4.985-28.25l-40.823-1.442L88.489,174.33l-72.643,14.373L-38.472,256.024z"/>
				<polygon id="XMLID_60_" fill="#FFFFFF" points="16,123 16,199.502 34.695,217.085 100.176,204 119.363,204 282.795,236.8 
					320.167,244.588 332.419,219.502 383.642,193.788 351.015,175.42 189.659,150.062 24.448,123 				"/>
				<path id="XMLID_59_" fill="#FFFFFF" d="M12.358,103.537c0,0-23.353,28.252,104.268,75.491s245.42,5.111,245.42,5.111
					l90.911,17.296l62.479-85.279l-32.973-17.981l-33.049,6.892l-101.765,44.681l-232.489-27.355L12.358,103.537z"/>
				<path id="XMLID_58_" fill="#FFFFFF" d="M88.489,138.46c0,0,41.063-14.937,55.729-12.634
					c14.665,2.303,186.66,73.235,224.586,61.348s68.823-45.12,108.37-37.425c39.547,7.694,7.283-51.573,7.283-51.573L318.737,89.6
					L135.062,65.482l-37.773,6.051L88.489,138.46z"/>
			</g>
		</g>
		<g>
			<defs>
				<path id="SVGID_11_" d="M246.268,235.934h-1.454c-2.076,0-4.049,0.672-5.919,2.015c-1.869,1.345-3.358,2.963-4.464,4.859
					l-20.457,37.215v29.036c0,2.056,0.657,3.813,1.973,5.274c1.314,1.463,2.872,2.192,4.673,2.192h1.246l0.104,1.185h-31.567v-1.185
					h1.35c1.8,0,3.34-0.711,4.621-2.132c1.28-1.423,1.955-3.16,2.026-5.215v-29.274l-19.834-37.215
					c-1.039-1.896-2.51-3.496-4.414-4.8c-1.905-1.303-3.859-1.955-5.866-1.955h-1.454v-1.185H201.2v1.185h-1.35
					c-1.524,0-2.7,0.791-3.531,2.37c-0.416,0.871-0.623,1.719-0.623,2.548s0.171,1.641,0.519,2.43l14.85,30.815l15.368-30.815
					c0.415-0.789,0.623-1.6,0.623-2.43s-0.244-1.639-0.727-2.43c-0.831-1.659-2.009-2.488-3.531-2.488h-1.246v-1.185h24.714V235.934
					z"/>
			</defs>
			<use xlink:href="#SVGID_11_"  overflow="visible" fill="#FFFFFF"/>
			<clipPath id="SVGID_12_">
				<use xlink:href="#SVGID_11_"  overflow="visible"/>
			</clipPath>
			<g id="XMLID_49_" clip-path="url(#SVGID_12_)">
				<polygon id="XMLID_56_" fill="#FFFFFF" points="-45.35,331.792 -21.669,303 35.853,303 87.881,309.528 150.757,315.487 
					235.784,303 264.252,303 318.244,303.766 356.201,290.448 397.718,283.311 456.656,324.258 443.034,338.988 420.991,351 
					15.238,351 -54.46,351 				"/>
				<path id="XMLID_55_" fill="#FFFFFF" d="M-45.44,243.992l-19.567,44.754L-39.081,332h17.412c0,0-10.256-6.611,16.922-17.763
					s27.179-11.225,27.179-11.225l23.565-0.343l83.45,13.996l113.159-5.11l28.192-5.104l47.447-2.552l29.988-16.092l-16.9-24.535
					l-35.34-2.03l-130.983-5.777L35.947,235.071L-45.44,243.992z"/>
				<polygon id="XMLID_54_" fill="#FFFFFF" points="-54.494,219.932 -21.716,270.357 6.748,293.267 21.996,293.131 58.513,280 
					94.753,280 116.017,285.582 158.029,293.248 244.055,281.757 302.905,298.965 319.65,276.015 354.993,281.757 416.45,298.964 
					438.177,338.718 487,356.324 487,276.174 442.161,219.932 102.484,204.322 2.49,203.366 				"/>
				<path id="XMLID_53_" fill="#FFFFFF" d="M-39.081,209.205L-4.746,231h118.478l44.298,27h28.018l26.066-25h12.873l24.016,35.171
					c0,0,62.349-28.679,76.266-18.483c13.917,10.196,67.365,22.961,100.85,6.392s50.5-17.46,50.5-17.46l-9.819-68.501l-4.985-28.244
					l-40.823-1.439l-333.11-12.745l-72.643,14.283L-39.081,209.205z"/>
				<polygon id="XMLID_52_" fill="#FFFFFF" points="16,76 16,152.864 34.391,170.267 99.568,157 118.755,157 282.186,189.981 
					319.559,197.86 331.811,172.819 383.033,147.128 350.406,128.771 189.051,103.237 23.839,76 				"/>
				<path id="XMLID_51_" fill="#FFFFFF" d="M11.749,56.9c0,0-23.353,28.252,104.268,75.491s245.42,5.111,245.42,5.111l90.911,17.296
					l62.479-85.279l-32.973-17.981l-33.049,6.892L347.039,103.11L114.55,75.755L11.749,56.9z"/>
				<path id="XMLID_50_" fill="#FFFFFF" d="M87.881,91.822c0,0,41.063-14.937,55.729-12.634
					c14.665,2.303,186.66,73.235,224.586,61.348s68.823-45.12,108.37-37.425s7.283-51.573,7.283-51.573l-165.72-8.575
					L134.453,18.845L96.68,24.896L87.881,91.822z"/>
			</g>
		</g>
		<g>
			<defs>
				<path id="SVGID_13_" d="M248.552,316.526c1.799,0,3.339-0.729,4.621-2.192c1.28-1.461,1.954-3.218,2.025-5.274V243.4
					c-0.07-2.053-0.745-3.811-2.025-5.274c-1.282-1.461-2.822-2.192-4.621-2.192h-1.35v-1.185h31.568l-0.104,1.185h-1.247
					c-1.801,0-3.358,0.731-4.673,2.192c-1.316,1.463-1.972,3.221-1.972,5.274v69.214h13.603c5.052,0,9.294-1.659,12.721-4.977
					c3.427-3.319,5.97-8.019,7.632-14.104h1.039l-4.776,24.177h-53.79v-1.185H248.552z"/>
			</defs>
			<use xlink:href="#SVGID_13_"  overflow="visible" fill="#FFFFFF"/>
			<clipPath id="SVGID_14_">
				<use xlink:href="#SVGID_13_"  overflow="visible"/>
			</clipPath>
			<g id="XMLID_41_" clip-path="url(#SVGID_14_)">
				<polygon id="XMLID_48_" fill="#FFFFFF" points="-60.413,358.292 -36.732,330 20.79,330 72.818,336.208 135.694,342.327 
					220.721,330 249.189,330 303.18,330.446 341.138,316.968 382.654,309.751 441.593,350.658 427.971,365.188 405.927,377 
					0.175,377 -69.523,377 				"/>
				<path id="XMLID_47_" fill="#FFFFFF" d="M-60.503,270.353l-19.567,44.574L-54.144,358h17.412c0,0-10.256-6.431,16.922-17.583
					s27.179-11.135,27.179-11.135l23.565-0.298l83.45,14.018l113.159-5.099l28.192-5.098l47.447-2.549l29.988-16.091l-16.9-24.535
					l-35.34-2.029l-130.983-5.777L20.884,261.431L-60.503,270.353z"/>
				<polygon id="XMLID_46_" fill="#FFFFFF" points="-69.557,246.293 -36.779,296.718 -8.315,319.628 6.933,319.311 43.45,306 
					79.689,306 100.954,311.762 142.966,319.518 228.991,308.072 287.842,325.302 304.587,302.364 339.93,308.111 401.387,325.322 
					423.146,365.077 472,382.684 472,302.534 427.13,246.293 87.436,230.682 -12.565,229.726 				"/>
				<path id="XMLID_45_" fill="#FFFFFF" d="M-54.144,235.885L-19.81,258H98.668l44.298,26h28.018l26.066-24h12.873l24.016,34.851
					c0,0,62.349-28.839,76.266-18.643c13.917,10.196,67.365,22.881,100.85,6.313s50.5-17.5,50.5-17.5l-9.819-68.521l-4.985-28.254
					l-40.823-1.444l-333.11-12.747L0.175,168.496L-54.144,235.885z"/>
				<polygon id="XMLID_44_" fill="#FFFFFF" points="0,103 0,179.224 18.859,196.947 84.505,184 103.691,184 267.123,216.661 
					304.496,224.38 316.748,199.26 367.97,173.528 335.343,155.151 173.988,129.928 8.776,103 				"/>
				<path id="XMLID_43_" fill="#FFFFFF" d="M-3.314,83.26c0,0-23.353,28.252,104.268,75.491s245.42,5.111,245.42,5.111
					l90.911,17.296l62.479-85.279L466.79,77.898l-33.049,6.892l-101.765,44.681L99.487,102.116L-3.314,83.26z"/>
				<path id="XMLID_42_" fill="#FFFFFF" d="M72.818,118.183c0,0,41.063-14.937,55.729-12.634
					c14.665,2.303,186.66,73.235,224.586,61.348s68.823-45.12,108.37-37.425c39.547,7.694,7.283-51.573,7.283-51.573l-165.72-8.575
					L119.39,45.205l-37.773,6.051L72.818,118.183z"/>
			</g>
		</g>
		<g>
			<defs>
				<path id="SVGID_15_" d="M311.893,316.526c1.8,0,3.34-0.729,4.621-2.192c1.28-1.461,1.955-3.218,2.026-5.274v-66.014
					c-0.208-2.765-1.35-4.819-3.427-6.163c-1.039-0.632-2.113-0.948-3.22-0.948h-1.35v-1.185h39.771c2.145,0,4.499-0.237,7.06-0.711
					c2.56-0.475,4.361-0.948,5.4-1.423v20.741h-1.039v-1.422c0-3.556-0.918-6.419-2.751-8.593c-1.836-2.172-4.31-3.337-7.425-3.496
					h-17.446v34.489h13.707c2.56-0.078,4.673-1.086,6.335-3.023c1.661-1.935,2.492-4.326,2.492-7.17v-1.067h1.039v27.378h-1.039
					v-0.948c0-3.95-1.385-6.874-4.153-8.77c-1.386-0.869-2.908-1.342-4.569-1.422h-13.811v33.302h13.604
					c5.052,0,9.293-1.659,12.72-4.977c3.427-3.319,5.971-8.019,7.633-14.104h1.039l-4.777,24.177h-53.789v-1.185H311.893z"/>
			</defs>
			<use xlink:href="#SVGID_15_"  overflow="visible" fill="#FFFFFF"/>
			<clipPath id="SVGID_16_">
				<use xlink:href="#SVGID_15_"  overflow="visible"/>
			</clipPath>
			<g id="XMLID_33_" clip-path="url(#SVGID_16_)">
				<polygon id="XMLID_40_" fill="#FFFFFF" points="-120.057,371.792 -96.376,343 -38.854,343 13.174,349.298 76.05,355.372 
					161.077,343 189.545,343 243.536,343.536 281.494,330.103 323.01,322.909 381.949,363.827 368.327,378.773 346.284,391 
					-59.469,391 -129.167,391 				"/>
				<path id="XMLID_39_" fill="#FFFFFF" d="M-120.147,283.533l-19.567,44.484L-113.788,371h17.412c0,0-10.256-6.341,16.922-17.493
					s27.179-11.09,27.179-11.09l23.565-0.276l83.45,14.03l113.159-5.093l28.192-5.096l47.447-2.548l29.988-16.09l-16.9-24.534
					l-35.34-2.029l-130.983-5.777L-38.76,274.611L-120.147,283.533z"/>
				<polygon id="XMLID_38_" fill="#FFFFFF" points="-129.201,259.473 -96.423,309.898 -67.959,332.808 -52.711,332.901 -16.194,320 
					20.045,320 41.31,325.352 83.322,332.904 169.347,321.355 228.198,338.534 244.943,315.57 280.286,321.304 341.743,338.509 
					363.824,378.261 413,395.864 413,315.715 367.808,259.473 27.953,243.862 -72.129,242.906 				"/>
				<path id="XMLID_37_" fill="#FFFFFF" d="M-113.788,248.975L-79.453,271H39.024l44.298,26h28.018l26.066-24h12.873l24.016,34.941
					c0,0,62.349-28.794,76.266-18.598c13.917,10.196,67.365,22.904,100.85,6.335s50.5-17.489,50.5-17.489l-9.819-68.515
					l-4.985-28.251l-40.823-1.442l-333.11-12.746l-72.643,14.397L-113.788,248.975z"/>
				<polygon id="XMLID_36_" fill="#FFFFFF" points="-59,116 -59,192.404 -40.463,210.037 24.861,197 44.047,197 207.479,229.752 
					244.852,237.515 257.104,212.417 308.326,186.697 275.699,168.326 114.344,143.015 -50.868,116 				"/>
				<path id="XMLID_35_" fill="#FFFFFF" d="M-62.958,96.44c0,0-23.353,28.252,104.268,75.491s245.42,5.111,245.42,5.111
					l90.911,17.296l62.479-85.279l-32.973-17.981l-33.049,6.892l-101.765,44.681L39.843,115.296L-62.958,96.44z"/>
				<path id="XMLID_34_" fill="#FFFFFF" d="M13.174,131.363c0,0,41.063-14.937,55.729-12.634s186.66,73.235,224.586,61.348
					s68.823-45.12,108.37-37.425s7.283-51.573,7.283-51.573l-165.72-8.575L59.746,58.385l-37.773,6.051L13.174,131.363z"/>
			</g>
		</g>
		<g>
			<defs>
				<path id="SVGID_17_" d="M76.483,235.666c-2.926,0.796-10.358,6.414-11.955,8.872c-1.215,1.742-1.823,3.711-1.823,5.906
					c0,3.635,2.363,7.005,7.091,10.109l17.517,14.086c6.078,3.939,10.945,9.729,10.945,17.376c0,1.14-0.048,2.241-0.145,3.305
					c0,0-1.303,28.191-32.454,27.446c0,0-25.119-0.401-25.678-29.075c0,0,0.03-10.109,7.338-18.972c0,0,1.023-1.429,2.044-0.378
					c0,0-6.447,10.481-6.305,19.413c0,0-1.22,24.1,26.062,23.858c0,0,19.812-1.166,17.116-20.617
					c-0.492-3.551-3.42-6.575-7.83-9.296l-17.625-13.063c-3.512-2.271-6.027-5.015-7.547-8.234
					c-1.519-3.218-2.279-6.492-2.279-9.825c0-7.117,2.009-12.608,6.027-16.469c4.017-3.862,9.167-5.793,15.447-5.793
					c0,0,2.042-0.12,5.803,0L76.483,235.666z"/>
			</defs>
			<use xlink:href="#SVGID_17_"  overflow="visible" fill="#FFFFFF"/>
			<clipPath id="SVGID_18_">
				<use xlink:href="#SVGID_17_"  overflow="visible"/>
			</clipPath>
			<g id="XMLID_25_" clip-path="url(#SVGID_18_)">
				<polygon id="XMLID_32_" fill="#FFFFFF" points="18.118,366.292 41.799,338 99.321,338 151.349,344.264 214.225,350.355 
					299.252,338 327.72,338 381.712,338.502 419.669,325.051 461.185,317.848 520.124,358.762 506.502,373.24 484.459,385 
					78.706,385 9.008,385 				"/>
				<path id="XMLID_31_" fill="#FFFFFF" d="M18.028,278.464l-19.567,44.518L24.387,366h17.412c0,0-10.256-6.376,16.922-17.528
					S85.9,337.365,85.9,337.365l23.565-0.285l83.45,14.025l113.159-5.095l28.192-5.097l47.447-2.548l29.988-16.091l-16.9-24.534
					l-35.34-2.029l-130.983-5.777L99.415,269.542L18.028,278.464z"/>
				<polygon id="XMLID_30_" fill="#FFFFFF" points="8.974,254.404 41.752,304.829 70.216,327.739 85.464,327.867 121.981,315 
					158.22,315 179.485,320.317 221.497,327.852 307.522,316.294 366.373,333.469 383.118,310.503 418.461,316.236 479.918,333.44 
					501.911,373.192 551,390.795 551,310.645 505.895,254.404 166.085,238.793 66.025,237.837 				"/>
				<path id="XMLID_29_" fill="#FFFFFF" d="M24.387,243.941L58.722,266h118.478l44.298,26h28.018l26.066-24h12.873l24.016,34.906
					c0,0,62.349-28.811,76.266-18.615c13.917,10.196,67.365,22.895,100.85,6.326c33.485-16.569,50.5-17.493,50.5-17.493
					l-9.819-68.518l-4.985-28.252l-40.823-1.443l-333.11-12.747l-72.643,14.414L24.387,243.941z"/>
				<polygon id="XMLID_28_" fill="#FFFFFF" points="79,111 79,187.335 97.625,205.002 163.036,192 182.223,192 345.654,224.717 
					383.027,232.463 395.279,207.357 446.501,181.632 413.874,163.259 252.519,137.981 87.307,111 				"/>
				<path id="XMLID_27_" fill="#FFFFFF" d="M75.217,91.371c0,0-23.353,28.252,104.268,75.491s245.42,5.111,245.42,5.111
					l90.911,17.296l62.479-85.279l-32.973-17.981L512.272,92.9l-101.765,44.681l-232.489-27.355L75.217,91.371z"/>
				<path id="XMLID_26_" fill="#FFFFFF" d="M151.349,126.293c0,0,41.063-14.937,55.729-12.634
					c14.665,2.303,186.66,73.235,224.586,61.348c37.926-11.887,68.823-45.12,108.37-37.425s7.283-51.573,7.283-51.573l-165.72-8.575
					L197.921,53.316l-37.773,6.051L151.349,126.293z"/>
			</g>
		</g>
	</g>
</g>
</svg>
