<?xml version="1.0" encoding="utf-8"?>
<!-- Generator: Adobe Illustrator 17.0.0, SVG Export Plug-In . SVG Version: 6.00 Build 0)  -->
<!DOCTYPE svg PUBLIC "-//W3C//DTD SVG 1.1//EN" "http://www.w3.org/Graphics/SVG/1.1/DTD/svg11.dtd">
<svg version="1.1" xmlns="http://www.w3.org/2000/svg" xmlns:xlink="http://www.w3.org/1999/xlink" x="0px" y="0px"
	 width="141.732px" height="141.732px" viewBox="0 0 141.732 141.732" enable-background="new 0 0 141.732 141.732"
	 xml:space="preserve">
<g id="Capa_1">
	<g>
		<path fill="#666566" d="M61.384,72.571c0.944-2.422,3.722-4.006,4.741-6.396c1.144-2.934,3.228-5.398,5.152-7.673
			c0.39,0.33,0.814,1.014,1.17,0.99c1.226-0.264,2.006,0.396,2.786,1.056c0.39,0.33-0.481,0.569,0.069,0.709
			c-0.481,0.569-1.088,1.682-0.217,1.442c0.551,0.141,0.802-0.948,1.547-0.642c0.746,0.305,1.01,1.179,1.755,1.484
			c0.161-0.19,0.481-0.569,0.642-0.759c0.551,0.141,1.01,1.18,1.171,0.99c0.871-0.239,1.317-1.162,1.958-1.92
			c0.39,0.33,0.941,0.47,0.815,1.014c-5.222,6.964-10.213,14.448-16.41,20.587c-0.836,0.594-1.135-0.635-1.239-1.698
			c0.035,0.355-0.55-0.141-0.516,0.214c-0.585-0.495-1.239-1.698-0.793-2.622c-0.16,0.19-0.321,0.379-0.481,0.569
			c-0.355,0.025-0.585-0.495-0.975-0.824c0.161-0.19,0.321-0.379,0.125-0.545c-0.195-0.165-0.585-0.495-0.78-0.659
			c-0.16,0.189-0.481,0.569-0.641,0.758c0.16-0.189,0.321-0.379,0.126-0.544c-0.195-0.165-0.585-0.495-0.781-0.66
			c0.126-0.544,0.997-0.782,1.122-1.327l-0.584-0.494c-0.516,0.214-0.802,0.948-1.122,1.327c-0.035-0.355-0.229-0.52-0.62-0.85
			c0.286-0.734,1.352-0.807,1.247-1.871c-0.16,0.189-0.321,0.379-0.481,0.568C59.516,73.592,61.098,73.305,61.384,72.571z"/>
	</g>
</g>
<g id="Capa_2">
</g>
<g id="Capa_3">
</g>
</svg>
